<?xml version="1.0" standalone="no"?>
<!DOCTYPE svg PUBLIC "-//W3C//DTD SVG 20010904//EN"
 "http://www.w3.org/TR/2001/REC-SVG-20010904/DTD/svg10.dtd">
<svg version="1.0" xmlns="http://www.w3.org/2000/svg"
 width="1200.000000pt" height="1200.000000pt" viewBox="0 0 1200.000000 1200.000000"
 preserveAspectRatio="xMidYMid meet">
<metadata>
Created by potrace 1.11, written by Peter Selinger 2001-2013
</metadata>
<g transform="translate(0.000000,1200.000000) scale(0.100000,-0.100000)"
fill="#000000" stroke="none">
<path d="M4800 11873 c-340 -53 -654 -261 -908 -599 -33 -45 -80 -99 -105
-120 -161 -141 -464 -239 -822 -264 -158 -11 -265 -31 -375 -67 -288 -96 -527
-314 -684 -624 -59 -117 -78 -168 -150 -409 -46 -155 -155 -351 -283 -510
-178 -219 -447 -461 -683 -616 -91 -59 -242 -207 -295 -289 -86 -131 -143
-274 -182 -455 -14 -67 -18 -129 -18 -290 0 -190 2 -212 27 -305 146 -547 161
-1090 39 -1424 -16 -42 -57 -126 -91 -187 -233 -402 -298 -751 -200 -1058 59
-183 162 -313 382 -485 373 -289 606 -690 648 -1114 74 -753 497 -1292 1141
-1456 329 -84 599 -223 869 -449 102 -86 160 -145 313 -320 179 -205 389 -373
608 -486 403 -209 821 -238 1220 -88 213 81 424 111 643 93 167 -14 300 -47
474 -115 483 -193 939 -164 1384 86 152 85 382 268 413 329 73 140 425 329
666 358 656 79 1147 381 1375 846 38 77 63 145 80 221 40 170 81 294 134 401
125 253 308 457 532 593 142 86 240 161 348 270 271 271 405 594 404 970 -1
150 -2 157 -31 226 -116 271 -126 618 -27 921 14 43 66 159 114 258 170 342
231 606 210 892 -26 332 -149 608 -389 867 -139 151 -218 265 -306 441 -79
159 -130 296 -172 460 -21 85 -26 134 -33 325 -9 250 -27 361 -85 536 -113
340 -364 649 -690 852 -129 79 -176 99 -317 136 -191 50 -293 87 -463 171
-304 149 -568 360 -704 560 -80 119 -157 209 -268 316 -314 301 -706 438
-1164 407 -160 -10 -290 -38 -483 -103 -230 -77 -304 -89 -521 -89 -209 0
-330 19 -530 85 -114 37 -152 54 -390 178 -173 90 -344 132 -524 130 -58 -1
-117 -3 -131 -6z m1705 -637 c870 -103 1638 -363 2358 -798 1002 -605 1740
-1510 2172 -2663 242 -646 346 -1258 332 -1959 -7 -356 -31 -585 -93 -901
-112 -569 -330 -1149 -602 -1605 -552 -926 -1260 -1590 -2217 -2079 -711 -364
-1482 -579 -2265 -632 -202 -14 -525 -7 -735 16 -953 102 -1920 495 -2761
1122 -439 328 -820 741 -1169 1268 -472 712 -781 1541 -861 2313 -21 201 -30
784 -15 993 57 805 272 1549 625 2157 237 410 329 550 509 775 328 409 758
805 1187 1092 649 433 1410 740 2130 860 331 55 467 64 900 60 259 -2 406 -8
505 -19z"/>
<path d="M5800 10905 c0 -10 10 -15 30 -15 17 0 39 -9 50 -20 19 -19 20 -33
20 -264 0 -291 -6 -315 -72 -316 -27 0 -45 -14 -31 -23 5 -3 125 -7 268 -8
l260 -4 3 74 c3 80 -11 94 -32 31 -17 -52 -44 -61 -169 -58 -139 4 -137 1
-137 160 l0 118 63 0 c79 0 107 -17 107 -66 0 -24 5 -34 15 -34 13 0 15 21 15
125 0 122 -12 164 -26 90 -10 -55 -26 -65 -105 -65 l-69 0 0 120 0 120 105 0
c123 0 160 -13 170 -59 3 -16 13 -35 21 -42 12 -10 14 -1 14 63 l0 75 -152 6
c-257 12 -348 9 -348 -8z"/>
<path d="M5115 10835 c-82 -13 -151 -24 -152 -24 -2 -1 -3 -5 -3 -11 0 -5 18
-10 40 -10 61 0 68 -19 106 -278 19 -125 34 -239 34 -254 0 -33 -23 -57 -61
-65 -16 -3 -29 -12 -29 -20 0 -11 8 -13 28 -9 15 3 81 13 147 22 218 29 288
55 358 133 56 63 70 103 71 206 0 79 -3 98 -28 153 -33 70 -86 124 -154 154
-68 30 -179 31 -357 3z m293 -44 c50 -26 86 -66 114 -126 19 -42 23 -67 23
-155 0 -87 -4 -112 -21 -144 -30 -58 -79 -93 -156 -112 -74 -18 -112 -14 -128
16 -9 16 -80 476 -80 516 0 14 36 20 143 22 50 2 78 -3 105 -17z"/>
<path d="M4585 10728 c-55 -15 -117 -33 -138 -38 -49 -14 -38 -30 19 -30 43 0
46 -2 64 -42 29 -68 132 -454 128 -485 -2 -21 -12 -33 -41 -47 -24 -11 -35
-22 -29 -28 13 -13 282 62 282 79 0 9 -12 11 -44 7 -39 -6 -46 -4 -61 19 -17
27 -130 413 -140 482 -7 44 8 66 53 79 22 7 29 21 15 29 -5 2 -53 -9 -108 -25z"/>
<path d="M7283 10563 c-71 -87 -166 -204 -212 -260 -45 -56 -92 -105 -103
-109 -11 -3 -35 -3 -54 1 -25 4 -34 2 -34 -8 0 -18 228 -83 242 -69 6 6 -4 16
-29 28 -54 27 -53 50 3 120 26 32 49 61 51 63 3 5 235 -60 245 -68 4 -4 12
-39 18 -79 14 -98 4 -116 -56 -109 -31 3 -44 1 -44 -8 0 -11 46 -26 273 -91
29 -9 19 21 -12 33 -16 6 -36 21 -44 34 -9 15 -28 131 -52 319 -43 348 -45
360 -56 360 -4 0 -66 -71 -136 -157z m102 -190 l7 -62 -49 13 c-26 8 -74 21
-105 30 l-58 17 88 106 87 106 11 -74 c7 -41 15 -102 19 -136z"/>
<path d="M4087 10560 c-6 -29 -8 -30 -62 -30 -104 0 -184 -66 -193 -159 -11
-121 97 -201 269 -201 73 0 146 -19 179 -47 25 -20 30 -32 30 -68 0 -145 -230
-186 -315 -56 -19 30 -52 44 -42 19 75 -187 117 -251 117 -179 0 28 1 28 74
34 79 6 124 23 169 66 92 84 78 234 -26 296 -37 21 -64 27 -172 35 -153 13
-190 26 -210 75 -30 71 29 138 123 138 50 0 82 -20 130 -82 21 -29 34 -38 37
-29 7 16 -76 210 -92 215 -5 2 -13 -10 -16 -27z"/>
<path d="M7999 10415 c-107 -34 -202 -128 -234 -232 -24 -76 -18 -192 15 -258
29 -60 91 -124 145 -150 47 -22 152 -32 195 -17 32 12 32 12 34 -42 3 -44 24
-21 74 79 28 58 52 107 52 110 0 16 -31 0 -64 -34 -54 -55 -126 -85 -189 -78
-136 17 -215 133 -187 277 23 122 105 242 193 283 77 37 188 16 243 -45 46
-50 58 -88 57 -180 0 -49 3 -88 7 -88 10 0 112 211 105 218 -3 3 -19 -2 -36
-12 -17 -10 -32 -16 -33 -14 -1 1 -14 23 -28 48 -15 25 -39 57 -55 72 -67 64
-202 93 -294 63z"/>
<path d="M3104 10019 c-111 -88 -108 -85 -99 -99 5 -8 11 -8 23 3 27 22 50 27
62 12 10 -12 39 -238 40 -307 l0 -27 -152 52 c-135 46 -153 55 -156 76 -2 13
5 32 18 46 12 13 17 26 12 29 -12 7 -241 -174 -241 -191 -1 -17 3 -16 46 7 21
11 49 20 62 20 14 0 106 -27 206 -61 195 -66 210 -76 276 -178 36 -55 36 -75
3 -108 -14 -14 -22 -29 -17 -34 11 -11 236 169 227 182 -4 6 -15 4 -30 -5 -40
-27 -68 -20 -110 27 -97 104 -94 97 -115 305 -20 207 -17 237 27 283 53 56 3
36 -82 -32z"/>
<path d="M8805 9858 c-428 -253 -435 -256 -484 -222 -14 10 -26 13 -32 7 -10
-10 169 -153 191 -153 15 0 12 16 -6 30 -23 20 -35 47 -28 65 9 23 140 98 156
89 15 -9 198 -146 198 -148 -5 -38 -43 -153 -54 -164 -14 -14 -19 -14 -51 1
-40 19 -58 22 -53 7 3 -11 229 -180 241 -180 14 0 7 20 -18 44 -17 17 -25 36
-25 58 0 18 34 173 74 343 41 171 71 313 68 317 -4 3 -83 -39 -177 -94z m61
-42 c-3 -14 -16 -66 -27 -118 -12 -51 -24 -99 -28 -106 -5 -9 -32 6 -90 49
-53 40 -79 65 -72 72 13 13 204 126 215 126 4 1 5 -10 2 -23z"/>
<path d="M5740 9943 c-879 -63 -1685 -386 -2357 -945 -150 -125 -413 -389
-534 -538 -483 -593 -776 -1275 -875 -2040 -21 -170 -30 -601 -15 -782 117
-1409 951 -2632 2231 -3268 785 -391 1675 -518 2550 -365 1129 198 2136 873
2742 1839 101 161 263 479 327 641 399 1014 369 2129 -83 3114 -222 484 -565
948 -962 1302 -684 610 -1521 968 -2433 1039 -123 9 -480 11 -591 3z m740
-118 c480 -59 919 -189 1331 -395 1697 -846 2542 -2742 2025 -4542 -177 -616
-502 -1169 -960 -1636 -384 -391 -809 -680 -1312 -891 -783 -328 -1692 -395
-2528 -185 -1416 355 -2522 1450 -2871 2843 -40 161 -67 304 -91 496 -23 173
-26 660 -6 830 43 372 122 693 249 1015 412 1043 1265 1866 2335 2254 326 118
729 203 1088 229 130 10 610 -2 740 -18z"/>
<path d="M5735 9639 c-823 -66 -1573 -377 -2187 -907 -132 -113 -368 -358
-471 -487 -427 -536 -687 -1148 -778 -1825 -26 -192 -35 -541 -20 -735 39
-487 153 -906 366 -1340 185 -378 405 -685 705 -985 598 -599 1352 -965 2215
-1077 175 -22 699 -26 865 -5 843 105 1562 433 2158 985 661 613 1059 1409
1163 2327 20 170 17 591 -5 770 -92 766 -393 1441 -902 2020 -452 515 -1066
907 -1735 1110 -428 129 -938 184 -1374 149z m506 -258 c159 -160 225 -387
199 -684 -7 -71 -9 -131 -6 -134 10 -11 77 40 105 81 41 59 53 110 49 199 -1
42 -2 77 -1 77 0 0 11 -16 22 -36 39 -66 61 -149 61 -231 0 -188 -85 -340
-274 -490 -44 -34 -82 -61 -84 -58 -2 2 12 23 31 47 49 60 87 144 87 195 l0
42 -57 -61 c-52 -54 -134 -108 -163 -108 -6 0 3 20 20 45 130 189 146 373 39
469 -21 20 -43 36 -48 36 -4 0 -2 -26 5 -57 18 -78 17 -178 -2 -243 -13 -44
-29 -67 -88 -125 -111 -110 -265 -179 -401 -179 -78 0 -130 21 -177 71 -66 69
-92 202 -64 331 24 115 66 188 175 305 136 146 194 228 212 302 5 21 7 3 8
-55 1 -48 -6 -112 -14 -143 -8 -32 -15 -71 -15 -87 0 -38 44 -90 76 -90 59 0
162 153 198 297 38 148 30 250 -29 347 l-33 55 51 -26 c29 -14 82 -56 118 -92z
m2094 -1103 c56 -64 103 -170 116 -262 28 -188 -52 -434 -184 -568 -91 -92
-300 -173 -526 -204 -64 -8 -129 -19 -146 -23 -30 -7 -29 -7 35 -39 115 -56
175 -67 373 -67 97 0 177 -4 177 -9 0 -5 -35 -43 -77 -85 -82 -80 -233 -192
-318 -235 -122 -62 -353 -95 -722 -103 -145 -3 -263 -9 -263 -12 0 -19 103
-104 158 -131 122 -60 316 -94 510 -88 61 2 112 0 112 -4 0 -3 -14 -18 -31
-33 -67 -56 -180 -100 -399 -156 -85 -22 -202 -60 -259 -85 -160 -68 -388
-210 -370 -228 4 -4 26 3 50 15 35 19 58 23 125 22 45 -1 88 -4 94 -8 6 -4
-19 -27 -62 -57 -87 -60 -160 -119 -208 -168 -31 -31 -35 -33 -37 -15 -2 11
10 243 26 515 21 345 34 496 42 499 6 2 89 43 183 91 653 332 1152 723 1452
1135 16 22 -32 -18 -106 -89 -277 -265 -738 -612 -1115 -839 -124 -74 -394
-217 -412 -217 -4 0 -4 71 0 157 l8 158 44 43 44 42 105 0 105 0 52 110 52
110 181 89 c100 49 224 106 276 126 62 24 120 56 167 92 l73 55 26 -31 c17
-21 35 -31 52 -31 38 0 49 10 67 59 21 61 87 150 196 265 102 108 261 246 284
246 7 0 30 -19 50 -42z m-1308 -355 c-2 -5 -62 -128 -132 -275 l-128 -268
-662 0 -662 0 -153 268 c-84 147 -155 270 -157 275 -2 4 424 7 947 7 523 0
949 -3 947 -7z m323 -214 c30 -1 46 -3 35 -6 -67 -15 -199 -59 -274 -92 l-88
-38 31 68 31 68 85 4 c47 2 94 2 105 0 11 -1 45 -3 75 -4z m-2125 -239 l139
-240 117 0 117 0 5 -42 c4 -24 9 -115 12 -203 l6 -160 -112 -115 c-104 -107
-111 -113 -104 -80 11 50 49 127 106 216 28 42 48 78 47 80 -6 5 -224 -125
-350 -209 -382 -256 -674 -565 -831 -882 -59 -118 -92 -213 -128 -363 -24
-104 -29 -144 -29 -256 l0 -133 -42 -7 c-24 -4 -53 -9 -65 -13 l-23 -5 0 1294
0 1294 138 18 c246 31 423 44 642 44 l215 1 140 -239z m-1122 -2524 c56 13
106 24 111 24 7 0 0 -50 -9 -58 -2 -2 -48 -14 -102 -26 l-98 -23 -62 56 -62
56 0 1200 -1 1200 58 73 57 72 3 -1299 2 -1298 103 23z m-393 2445 c0 -5 -31
-38 -70 -75 -38 -36 -70 -70 -70 -75 0 -5 7 -14 15 -21 13 -11 15 -175 15
-1361 0 -742 1 -1350 3 -1350 1 -1 61 -5 133 -8 l132 -6 -115 -127 -115 -127
-62 5 c-33 3 -94 12 -133 20 l-73 15 0 883 c0 485 3 1187 7 1559 l6 677 164 0
c89 0 163 -4 163 -9z m193 -2665 c162 32 197 37 197 27 0 -5 -17 -26 -38 -46
-33 -32 -52 -41 -141 -62 -56 -14 -109 -25 -117 -25 -8 0 -35 19 -59 41 l-45
42 0 1286 0 1286 43 60 42 60 3 -1346 2 -1346 113 23z m4805 1097 l-3 -1557
-45 -15 c-75 -26 -589 -21 -850 7 -317 35 -375 45 -492 91 -137 53 -306 96
-433 111 -124 14 -236 2 -312 -36 -62 -30 -128 -102 -145 -155 -6 -23 -17 -39
-26 -39 -12 0 -14 13 -8 77 3 42 6 100 6 129 l0 53 58 21 c231 87 495 108 682
55 30 -9 98 -20 150 -25 172 -16 741 -41 975 -43 l230 -2 5 1350 c5 1258 6
1353 23 1389 9 21 17 40 17 41 0 1 -29 22 -65 45 -36 23 -65 46 -65 51 0 5 68
9 150 9 l150 0 -2 -1557z m-354 1463 c15 -24 14 -25 -17 -45 l-32 -20 -3 30
c-7 61 22 80 52 35z m-174 -76 c0 -19 -5 -30 -14 -30 -7 0 -28 -3 -46 -6 -29
-6 -31 -5 -28 16 2 16 14 27 38 36 49 18 50 17 50 -16z m159 -2512 c-23 -38
-44 -70 -48 -72 -4 -3 -59 8 -123 24 -309 75 -576 104 -918 97 -273 -5 -433
-24 -620 -72 -52 -13 -96 -23 -97 -21 -6 6 163 66 255 90 197 52 283 61 612
61 327 0 431 -9 710 -62 74 -14 150 -28 168 -31 l34 -4 -8 1199 -7 1199 39 59
39 58 3 -1228 2 -1229 -41 -68z m-1924 2405 c-6 -86 -205 -3599 -205 -3632 0
-20 -5 -21 -130 -21 -124 0 -130 1 -130 20 0 34 -188 3549 -195 3633 l-5 77
335 0 336 0 -6 -77z m1741 -2197 c-50 -85 -34 -81 -188 -42 -290 75 -516 101
-788 93 -244 -7 -370 -33 -605 -122 -33 -12 35 34 95 64 77 39 198 78 310 98
118 21 410 23 560 4 126 -16 368 -63 465 -91 38 -11 73 -20 77 -20 5 0 8 438
8 973 l0 973 43 47 42 47 3 -991 2 -992 -24 -41z m-206 986 l0 -848 -128 32
c-335 82 -688 96 -982 38 -101 -20 -260 -70 -339 -105 -35 -16 -65 -28 -66
-27 -1 2 6 129 16 283 10 154 18 285 18 292 1 6 30 28 66 48 36 20 101 68 145
108 44 39 120 100 168 134 104 75 330 191 425 218 37 11 67 23 67 27 0 5 -69
9 -152 9 l-153 1 90 19 c50 10 126 21 170 25 59 5 99 15 154 40 171 78 345
227 403 345 14 30 25 56 23 57 -2 2 -72 -4 -156 -13 -110 -13 -195 -16 -308
-12 -235 8 -254 22 -41 30 225 8 379 42 520 116 30 16 56 30 58 30 1 1 2 -380
2 -847z m-2592 788 c-13 -57 3 -119 41 -162 l28 -31 43 34 c23 19 50 50 60 69
11 19 37 55 58 80 l40 45 6 -120 c3 -66 8 -143 11 -172 l5 -51 -133 -76 c-252
-143 -520 -350 -743 -571 -177 -177 -264 -289 -339 -440 -62 -124 -85 -208
-85 -310 l0 -70 23 65 c46 128 146 296 269 449 92 114 367 383 508 497 130
105 290 224 422 312 l77 52 5 -53 c6 -57 36 -660 36 -718 l0 -36 -177 -6 c-98
-3 -230 -12 -293 -19 l-115 -13 103 -7 c180 -12 303 -47 347 -100 25 -29 25
-31 9 -50 -29 -31 -115 -75 -210 -107 -106 -36 -308 -81 -360 -81 -67 0 -246
-31 -328 -57 -153 -48 -275 -125 -347 -220 -24 -32 -146 -180 -271 -329 -220
-263 -348 -396 -472 -488 -73 -55 -142 -94 -131 -75 121 198 154 240 314 404
273 280 405 434 454 532 35 68 47 124 57 263 18 247 150 618 310 875 152 244
361 464 583 614 71 48 199 122 203 118 1 -1 -2 -22 -8 -47z m355 -1557 c4 -75
5 -139 3 -140 -2 -2 -28 7 -57 20 -30 13 -85 34 -123 47 l-69 23 29 21 c16 11
56 46 89 77 59 55 103 89 116 89 3 0 9 -62 12 -137z m-377 -164 c83 -25 218
-90 259 -124 27 -22 22 -21 -52 11 -92 39 -276 89 -374 100 l-64 8 50 12 c73
18 105 16 181 -7z m-306 -173 c191 -27 283 -50 448 -113 91 -36 124 -57 43
-28 -72 25 -270 63 -421 81 -118 13 -196 15 -420 10 -151 -4 -297 -9 -325 -12
l-50 -6 38 39 c36 37 40 38 125 45 127 9 441 0 562 -16z m485 -220 c99 -24
214 -62 226 -75 4 -3 9 -61 11 -128 6 -140 -3 -155 -42 -72 -41 86 -111 138
-222 164 -157 37 -425 -3 -698 -105 -47 -17 -107 -36 -135 -41 -100 -19 -733
-75 -742 -65 -2 1 47 61 108 133 l111 131 101 6 c56 3 230 13 387 21 179 10
305 21 340 31 99 27 163 33 310 29 111 -3 168 -10 245 -29z m2936 -793 c12
-15 12 -16 -3 -10 -26 9 -42 0 -76 -42 l-31 -38 44 -36 44 -37 21 30 c18 25
20 34 10 46 -7 8 -11 17 -8 19 2 3 22 -14 44 -36 22 -24 29 -36 17 -28 -21 12
-26 11 -50 -13 l-27 -27 40 -35 c21 -19 46 -35 55 -36 10 0 31 16 49 36 26 30
31 42 26 68 l-6 31 21 -22 22 -22 -26 -33 c-15 -18 -49 -58 -76 -88 -40 -45
-48 -50 -44 -30 4 21 -9 37 -83 103 -48 42 -92 77 -98 77 -7 0 -17 -5 -24 -12
-7 -7 -12 -8 -12 -4 0 13 133 156 145 156 7 0 19 -8 26 -17z m-4581 -147 l64
-66 -20 -21 -21 -20 4 28 c4 22 -4 36 -36 67 -44 43 -51 42 -93 -16 -19 -28
-19 -30 -3 -49 21 -22 45 -25 65 -6 7 6 -1 -7 -19 -30 -37 -49 -41 -51 -34
-23 4 14 -3 30 -18 46 l-23 24 -34 -32 c-46 -45 -56 -66 -41 -84 26 -31 -9
-12 -45 25 -32 33 -35 39 -17 34 25 -6 62 24 143 120 41 50 47 61 36 75 -33
39 31 -11 92 -72z m4401 -97 c20 -20 23 -58 8 -108 -6 -20 91 -35 140 -21 l36
9 -31 -28 -32 -29 -58 14 c-66 15 -114 18 -114 6 0 -4 17 -25 38 -45 28 -27
44 -36 57 -31 9 4 -2 -11 -26 -34 -42 -39 -66 -49 -39 -17 13 16 -8 47 -109
157 -44 47 -49 50 -71 39 -16 -8 -8 3 20 29 91 83 141 99 181 59z m-4231 -48
c32 -27 32 -29 10 -24 -22 4 -35 -9 -97 -87 -76 -95 -81 -107 -60 -129 21 -23
-23 5 -61 38 -31 27 -32 28 -9 24 21 -4 35 7 89 72 85 104 91 115 70 139 -16
18 -16 18 3 8 11 -6 36 -25 55 -41z m163 -124 c32 -21 67 -53 78 -70 39 -65
15 -155 -53 -197 -39 -24 -76 -25 -123 -5 -43 17 -159 100 -129 91 27 -8 36 1
110 109 52 77 57 88 45 107 -15 24 -14 23 72 -35z m3812 13 c18 -20 18 -20
-12 -14 -23 5 -40 -1 -71 -21 l-41 -27 30 -44 c16 -24 33 -44 37 -44 4 0 18 7
31 16 16 12 22 23 18 40 -2 13 -3 24 -2 24 4 0 55 -79 55 -85 0 -4 -7 1 -16 9
-14 14 -18 14 -45 1 -16 -9 -29 -19 -29 -24 0 -19 62 -91 78 -91 26 0 90 57
94 83 l3 22 14 -23 c7 -13 11 -25 9 -26 -51 -36 -166 -114 -176 -120 -11 -7
-11 -4 -1 12 12 19 8 29 -36 94 -77 112 -94 130 -119 122 -21 -6 10 18 104 84
54 37 52 37 75 12z m-225 -180 c19 -38 27 -66 12 -44 -33 48 -105 57 -151 18
-27 -22 -31 -33 -31 -73 0 -26 8 -62 19 -81 21 -41 74 -80 108 -80 63 0 112
59 99 120 -8 41 0 38 24 -10 24 -47 24 -51 6 -44 -9 4 -20 -6 -30 -25 -45 -86
-172 -80 -240 11 -25 35 -26 110 -2 156 21 40 86 73 128 65 21 -4 28 -2 28 11
0 25 8 19 30 -24z m-3280 -25 c47 -26 86 -49 88 -50 2 -2 -4 -16 -13 -32 -12
-21 -14 -22 -10 -6 5 18 -2 28 -36 53 -23 16 -48 30 -55 30 -7 0 -24 -20 -37
-45 l-26 -45 22 -15 c26 -18 49 -19 66 -2 14 13 -9 -35 -30 -63 -9 -13 -10
-13 -5 2 5 16 -35 58 -55 58 -13 0 -61 -99 -54 -111 4 -5 28 -20 54 -34 45
-22 50 -23 71 -8 21 15 22 15 11 -5 -6 -12 -16 -24 -21 -27 -6 -3 -52 17 -103
46 -93 52 -116 67 -85 56 24 -9 39 10 98 119 51 94 52 96 34 116 -11 12 -14
19 -9 16 6 -3 48 -27 95 -53z m2965 -89 c-18 -13 -16 -19 33 -141 29 -71 51
-130 49 -131 -1 -2 -63 30 -137 71 -74 41 -136 73 -137 71 -6 -5 70 -181 81
-188 6 -4 20 -5 31 -2 34 11 12 -4 -40 -26 -47 -20 -48 -20 -31 -1 17 18 16
23 -24 125 -24 60 -50 112 -62 120 -21 15 -21 15 4 21 18 5 54 -11 148 -64 68
-38 126 -69 127 -67 5 4 -55 147 -72 173 -9 14 -22 20 -33 18 -9 -3 1 4 23 15
46 23 67 26 40 6z m-2567 -96 c18 -11 37 -18 43 -15 13 9 10 -4 -11 -50 l-19
-40 0 34 c-1 19 -8 43 -18 53 -22 25 -69 24 -83 -2 -13 -24 -6 -39 44 -99 43
-52 51 -75 36 -111 -22 -54 -99 -63 -147 -18 -13 12 -29 18 -38 14 -18 -6 -15
8 11 68 l13 31 1 -42 c0 -33 6 -46 26 -62 30 -23 74 -27 92 -9 22 22 13 55
-28 107 -51 65 -59 97 -30 134 26 33 62 35 108 7z m2230 -31 c-25 -14 -23 -39
15 -153 24 -74 37 -100 52 -104 16 -5 13 -8 -15 -18 -52 -19 -56 -17 -53 19 2
18 -11 73 -29 127 -29 83 -36 95 -58 99 -21 3 -17 6 25 22 57 20 91 25 63 8z
m-1989 -54 c46 -14 86 -27 89 -29 2 -3 1 -18 -3 -33 l-8 -28 -6 25 c-7 26 -35
44 -86 54 -29 6 -31 5 -43 -39 -7 -25 -12 -49 -12 -54 0 -16 60 -24 76 -10 13
11 14 9 8 -17 -4 -16 -11 -38 -15 -49 -7 -18 -8 -17 -8 7 -1 20 -8 29 -32 37
-18 6 -33 11 -35 11 -8 0 -32 -102 -28 -115 4 -8 29 -22 57 -30 61 -18 52 -18
71 1 12 11 16 12 16 2 -1 -39 -15 -39 -130 -6 -74 22 -105 34 -88 36 30 4 35
15 73 147 l26 90 -23 19 c-21 17 -21 18 -3 13 11 -4 58 -18 104 -32z m1839 3
c-11 -9 -25 -60 -43 -158 -14 -79 -27 -146 -29 -147 -1 -2 -42 51 -90 117 -48
66 -94 124 -103 128 -12 7 -9 10 15 15 94 19 89 18 63 7 -16 -7 -21 -15 -17
-27 9 -22 119 -172 127 -173 3 0 14 48 24 106 18 102 18 107 1 119 -16 12 -16
14 6 18 13 2 32 5 42 6 18 1 18 0 4 -11z m-1573 -188 l31 -125 72 107 c71 106
73 107 105 101 39 -7 48 -13 19 -13 -11 0 -24 -4 -27 -10 -3 -5 -15 -60 -25
-122 -16 -89 -17 -115 -7 -126 10 -13 7 -14 -22 -9 -18 4 -43 7 -55 7 -20 0
-19 1 4 13 21 11 27 25 42 102 9 50 15 91 13 93 -2 2 -34 -43 -71 -100 l-67
-103 -29 115 c-38 154 -39 155 -54 75 -19 -104 -18 -155 4 -156 9 0 13 -2 7
-5 -5 -2 -30 0 -55 5 -25 5 -35 9 -23 10 15 1 24 11 32 34 16 52 34 184 29
212 -5 23 -3 26 20 23 24 -3 28 -11 57 -128z m1056 79 c48 -25 44 -102 -7
-129 -13 -8 -23 -17 -22 -21 6 -16 92 -80 115 -85 19 -5 21 -9 11 -15 -32 -21
-64 -9 -118 46 -30 30 -60 55 -67 55 -17 0 -7 -74 13 -107 14 -22 13 -23 -13
-23 -16 0 -39 -3 -53 -7 l-25 -6 23 19 22 19 -15 106 c-18 129 -21 139 -49
140 -33 3 53 16 112 18 29 0 62 -4 73 -10z m-596 -23 c45 -19 62 -54 46 -94
-15 -35 -48 -52 -101 -52 -37 0 -40 -2 -45 -34 -10 -48 -3 -69 25 -83 l25 -13
-25 1 c-33 0 -110 16 -88 18 21 1 25 18 33 145 4 67 2 103 -6 112 -10 12 -2
14 45 14 31 0 72 -7 91 -14z m325 -13 c-1 -24 -2 -25 -11 -10 -8 13 -23 17
-69 17 l-60 0 0 -32 c0 -60 10 -78 41 -78 17 0 34 8 43 22 15 21 16 20 15 -32
0 -43 -2 -50 -9 -32 -7 17 -17 22 -45 22 l-35 0 0 -55 c0 -44 4 -56 20 -65 29
-15 102 -1 123 24 18 21 18 21 15 -9 l-3 -30 -110 -2 c-60 -1 -104 1 -97 3 8
4 12 38 12 119 0 129 -4 144 -34 147 -37 2 66 15 137 16 67 2 67 2 67 -25z"/>
<path d="M8152 3504 c-30 -21 -28 -32 17 -81 l39 -43 26 21 c19 15 26 30 26
53 0 58 -58 85 -108 50z"/>
<path d="M4112 3261 c-34 -49 -62 -98 -62 -109 0 -27 47 -56 92 -56 81 -1 153
116 117 187 -13 25 -59 66 -75 67 -6 0 -38 -40 -72 -89z"/>
<path d="M6364 2782 c-8 -5 -9 -25 -3 -65 4 -33 9 -60 11 -62 2 -1 18 0 36 2
59 9 79 75 36 117 -16 17 -61 21 -80 8z"/>
<path d="M5786 2763 c-3 -4 -6 -35 -6 -70 0 -63 0 -63 29 -63 37 0 81 35 81
65 0 12 -8 32 -17 43 -18 20 -75 36 -87 25z"/>
<path d="M9417 9554 c-3 -4 3 -18 13 -32 41 -51 32 -66 -127 -220 -238 -231
-251 -239 -301 -197 -19 16 -33 22 -37 15 -7 -12 120 -156 215 -243 79 -74
137 -101 227 -105 60 -4 80 0 127 21 70 32 144 101 182 169 25 46 29 63 29
133 0 113 -30 165 -185 330 -124 133 -132 140 -143 129z m168 -216 c95 -106
114 -194 63 -293 -30 -59 -116 -143 -179 -176 -55 -29 -148 -32 -196 -6 -47
25 -102 75 -119 109 -14 27 -14 32 3 58 18 29 362 359 375 360 3 0 27 -23 53
-52z"/>
<path d="M2442 9388 c-29 -13 -72 -38 -95 -57 -37 -30 -227 -249 -250 -288
-15 -25 0 -25 38 2 21 14 41 25 45 25 27 0 407 -311 423 -347 9 -20 8 -31 -6
-55 -19 -33 -21 -48 -8 -48 17 0 229 269 257 327 25 49 29 70 29 138 0 70 -4
87 -29 133 -85 152 -267 229 -404 170z m168 -93 c114 -58 200 -172 200 -264 0
-83 -82 -211 -134 -211 -28 0 -39 8 -253 183 l-183 149 39 47 c61 72 95 101
137 117 53 20 130 11 194 -21z"/>
<path d="M10025 8848 c20 -65 18 -74 -24 -109 -60 -51 -382 -257 -413 -264
-23 -6 -33 -2 -57 24 -18 19 -32 27 -36 21 -7 -12 261 -429 280 -437 7 -2 37
10 66 28 65 38 62 35 55 47 -4 7 -18 6 -40 0 -61 -19 -81 -6 -146 93 -62 94
-67 108 -51 138 10 18 199 147 205 140 20 -22 66 -107 66 -123 0 -11 -14 -34
-31 -52 -52 -53 -18 -46 83 19 112 72 112 72 103 86 -4 8 -13 6 -28 -4 -50
-35 -81 -18 -142 77 l-17 27 102 66 c56 36 104 65 105 63 2 -2 28 -43 59 -92
63 -100 68 -130 31 -174 -40 -48 -11 -49 50 -3 30 23 55 44 55 46 0 2 -59 94
-131 204 -121 185 -163 237 -144 179z"/>
<path d="M1744 8578 c-3 -4 79 -127 181 -273 102 -147 190 -278 195 -291 7
-18 6 -35 -5 -61 -8 -20 -13 -38 -10 -41 9 -9 29 17 88 113 58 92 63 134 10
75 -39 -43 -56 -36 -115 46 l-46 66 60 97 c83 132 72 124 154 110 110 -18 115
-24 89 -106 -4 -14 -3 -23 3 -23 16 0 164 242 154 252 -5 5 -20 -5 -35 -22
-36 -40 -47 -40 -415 19 -167 26 -305 44 -308 39z m273 -124 l112 -17 -14 -26
c-8 -14 -34 -56 -57 -93 l-43 -68 -60 87 c-33 48 -69 100 -79 117 l-20 29 25
-6 c13 -3 74 -13 136 -23z"/>
<path d="M10462 8105 c3 -40 -1 -50 -23 -67 -42 -32 -435 -188 -474 -188 -29
0 -39 5 -53 30 -9 16 -23 30 -29 30 -7 0 -13 -1 -13 -3 0 -2 20 -52 44 -112
49 -122 71 -147 60 -67 -6 45 -4 51 18 66 19 12 283 124 398 167 14 6 -68 -84
-182 -198 -115 -115 -208 -214 -208 -221 0 -9 37 -12 148 -12 81 0 205 -3 276
-7 l129 -6 -184 -74 c-205 -81 -232 -85 -264 -37 -11 17 -26 29 -32 27 -7 -3
9 -54 42 -136 55 -138 82 -174 70 -96 -4 30 -2 50 7 62 12 16 336 155 450 193
44 14 51 14 73 0 13 -8 26 -25 30 -36 3 -11 13 -20 21 -20 19 0 19 -1 -17 84
l-31 73 -81 7 c-45 3 -173 6 -284 6 -112 0 -203 3 -203 8 0 4 89 97 199 206
l199 198 -33 81 c-39 96 -56 110 -53 42z"/>
<path d="M1453 8023 c-3 -10 -26 -69 -50 -131 -23 -63 -43 -118 -43 -123 0
-20 19 -7 39 26 17 29 26 35 53 34 49 0 204 -62 200 -80 -9 -44 -117 -319
-126 -319 -24 0 -176 64 -196 82 -19 17 -21 27 -15 64 4 29 2 44 -4 44 -6 0
-11 -1 -11 -3 0 -1 -22 -61 -50 -132 -27 -71 -50 -133 -50 -137 0 -4 7 -8 15
-8 8 0 15 6 15 13 0 7 10 24 21 36 18 19 29 22 58 17 54 -9 449 -162 473 -183
16 -14 19 -27 15 -60 -9 -80 18 -46 67 86 28 75 45 134 41 141 -6 9 -14 2 -27
-24 -26 -51 -48 -51 -195 2 -57 20 -103 41 -103 46 0 5 28 82 61 171 l62 162
76 -28 c176 -67 189 -78 176 -145 -4 -24 -2 -34 7 -34 16 0 113 254 103 270
-4 6 -15 -3 -29 -22 -36 -54 -61 -50 -308 44 -121 46 -229 91 -240 102 -16 15
-19 26 -13 62 6 45 -9 63 -22 27z"/>
<path d="M10819 7228 c0 -2 -2 -24 -4 -50 -3 -61 -18 -80 -175 -227 -126 -119
-133 -124 -193 -137 -67 -14 -126 -18 -151 -8 -8 3 -20 21 -26 40 -12 37 -30
46 -30 15 0 -15 26 -158 46 -248 7 -37 24 -26 24 15 0 54 21 69 127 92 l91 20
173 -71 c96 -39 186 -80 201 -90 16 -12 33 -37 39 -60 13 -42 36 -48 31 -8 -4
32 -32 179 -38 202 -9 29 -23 19 -26 -20 -2 -28 -8 -39 -23 -42 -20 -4 -307
109 -303 119 2 3 54 54 116 114 69 65 120 106 130 104 9 -2 23 -18 31 -36 16
-34 31 -42 31 -16 0 38 -53 294 -61 294 -5 0 -9 -1 -10 -2z"/>
<path d="M1090 7048 c0 -6 7 -19 16 -29 15 -16 14 -20 -9 -51 -98 -129 -30
-298 119 -298 75 0 123 30 209 131 85 100 124 129 173 129 43 0 88 -43 98 -94
20 -110 -79 -216 -203 -216 -38 0 -44 -17 -10 -25 41 -9 211 -45 214 -45 11 0
-1 25 -19 40 -20 16 -21 22 -11 37 43 62 73 123 79 159 17 118 -73 224 -191
224 -69 0 -111 -29 -204 -140 -95 -113 -133 -138 -187 -120 -63 21 -83 110
-39 176 22 34 90 64 147 64 48 0 72 14 41 24 -21 6 -210 46 -218 46 -3 0 -5
-5 -5 -12z"/>
<path d="M1182 5690 c-100 -61 -96 -207 8 -261 45 -24 84 -24 135 1 81 39 109
145 57 218 -43 60 -138 80 -200 42z"/>
<path d="M10665 5686 c-56 -26 -88 -70 -93 -128 -3 -44 0 -59 20 -87 37 -55
71 -75 127 -75 89 0 158 75 148 162 -11 100 -118 167 -202 128z"/>
<path d="M2010 4037 c0 -2 7 -18 16 -35 30 -61 30 -60 -240 -229 -195 -122
-221 -131 -258 -88 -22 25 -38 32 -38 16 0 -19 144 -241 156 -241 17 0 17 0
-2 38 -27 54 -13 71 119 154 l59 36 52 -76 c43 -64 62 -82 108 -106 48 -24 64
-27 103 -22 117 18 178 148 125 265 -33 72 -174 291 -187 291 -7 0 -13 -2 -13
-3z m136 -259 c28 -56 30 -78 8 -124 -33 -69 -147 -107 -203 -68 -21 15 -97
123 -89 128 1 1 55 35 118 74 129 82 118 82 166 -10z"/>
<path d="M9906 3835 l-97 -174 38 -34 c92 -83 103 -90 109 -72 4 9 -2 25 -15
39 -35 37 -28 86 26 187 26 49 50 85 54 81 3 -4 25 -63 49 -132 23 -69 49
-130 57 -137 38 -30 57 21 28 77 -14 27 -14 30 12 50 57 45 127 38 184 -19 48
-47 56 -80 35 -135 -22 -58 -64 -96 -114 -103 -69 -9 -94 -65 -36 -79 55 -14
143 42 189 120 62 106 54 207 -20 282 -68 68 -158 71 -250 9 -20 -15 -38 -25
-39 -23 -2 2 -20 52 -40 111 -22 61 -46 112 -56 117 -14 8 -31 -17 -114 -165z"/>
<path d="M2350 3495 c0 -4 7 -20 16 -37 9 -17 13 -40 10 -54 -4 -16 -65 -70
-174 -157 -251 -199 -255 -202 -302 -152 -14 15 -27 22 -33 16 -9 -9 157 -231
174 -231 14 0 11 15 -8 49 -17 29 -17 31 3 58 42 57 386 323 418 323 12 0 33
-11 46 -25 25 -27 40 -32 40 -14 0 15 -169 229 -181 229 -5 0 -9 -2 -9 -5z"/>
<path d="M9585 3341 c-46 -20 -101 -79 -121 -127 -8 -19 -14 -58 -14 -88 0
-47 4 -60 30 -90 17 -19 43 -37 59 -41 26 -5 84 4 123 20 14 6 16 -2 15 -62
-1 -54 4 -77 20 -104 29 -45 71 -69 125 -69 191 1 317 276 179 393 -54 45
-106 43 -223 -8 -16 -6 -18 0 -18 53 0 73 -14 109 -51 128 -37 19 -76 17 -124
-5z m74 -77 c26 -19 51 -71 51 -108 0 -32 -61 -66 -119 -66 -31 0 -44 6 -61
27 -31 39 -21 88 25 131 39 36 69 40 104 16z m303 -183 c28 -25 33 -36 32 -74
-3 -128 -139 -193 -220 -104 -31 34 -53 114 -38 138 12 19 128 69 161 69 22 0
44 -10 65 -29z"/>
<path d="M2571 3114 c-34 -31 -49 -50 -42 -57 6 -6 17 -4 32 7 13 9 39 16 57
16 29 0 46 -11 108 -72 l74 -73 -174 -181 c-96 -100 -189 -187 -206 -194 -28
-12 -34 -11 -60 9 -30 21 -50 27 -50 13 0 -16 208 -214 214 -203 4 6 -3 24
-15 40 -16 22 -20 37 -15 57 5 18 75 96 189 211 l181 183 69 -67 c84 -83 92
-100 71 -154 -9 -22 -13 -43 -9 -47 4 -4 29 18 57 48 l49 55 -232 228 c-128
125 -236 227 -240 227 -4 0 -30 -21 -58 -46z"/>
<path d="M9170 2861 c-107 -34 -180 -121 -180 -213 0 -88 60 -135 161 -126 27
3 49 4 49 3 0 -2 -7 -19 -15 -38 -8 -20 -15 -58 -15 -84 0 -91 60 -147 155
-146 63 1 111 21 165 69 58 53 84 106 84 176 1 64 -17 97 -75 137 -30 20 -42
22 -99 18 -36 -3 -72 -8 -81 -12 -15 -6 -15 -2 -1 50 19 67 9 119 -28 147 -30
22 -85 31 -120 19z m55 -88 c26 -26 37 -65 30 -109 -5 -37 -10 -42 -37 -48
-65 -13 -108 -7 -133 19 -14 13 -25 34 -25 45 0 29 26 76 52 94 30 21 92 20
113 -1z m252 -238 c17 -19 23 -39 23 -72 0 -41 -5 -50 -44 -89 -39 -40 -48
-44 -91 -44 -40 0 -52 5 -80 33 -40 40 -50 71 -41 132 8 48 1 43 101 69 11 2
40 3 65 1 33 -2 50 -10 67 -30z"/>
<path d="M3132 2576 c-23 -30 -42 -57 -42 -60 0 -12 26 -5 50 14 14 11 37 20
52 20 33 0 183 -100 182 -122 -1 -16 -242 -367 -282 -410 -29 -31 -66 -36 -99
-13 -15 11 -24 12 -28 4 -4 -6 3 -18 16 -27 147 -106 219 -151 224 -142 4 6
-5 20 -19 31 -37 29 -33 65 12 135 33 50 248 361 258 373 6 7 157 -104 172
-127 13 -20 14 -31 4 -65 -17 -64 2 -65 42 -3 20 31 37 61 39 65 2 9 -518 381
-532 381 -3 0 -25 -24 -49 -54z"/>
<path d="M8567 2379 c-58 -53 -75 -74 -67 -84 8 -10 18 -8 50 7 68 34 89 14
236 -228 66 -109 72 -146 28 -180 -19 -16 -25 -27 -18 -34 7 -7 50 14 137 68
116 70 150 102 101 94 -82 -15 -85 -14 -110 9 -14 13 -77 107 -141 209 -64
102 -121 191 -127 197 -9 10 -29 -4 -89 -58z"/>
<path d="M3860 2123 c-63 -24 -102 -87 -102 -163 1 -56 16 -89 82 -181 97
-134 111 -189 61 -240 -25 -24 -38 -29 -78 -29 -60 0 -133 42 -159 92 -19 36
-24 105 -11 156 6 21 5 32 -2 32 -13 0 -118 -207 -109 -215 3 -4 18 1 33 11
l27 18 46 -51 c56 -61 83 -79 141 -92 54 -12 131 6 167 40 36 34 64 92 64 134
0 49 -18 88 -85 180 -104 145 -115 186 -66 236 37 36 84 38 132 6 63 -42 82
-116 53 -214 -4 -14 -2 -23 5 -23 13 0 118 206 109 215 -3 4 -19 0 -35 -8 -28
-15 -29 -14 -51 19 -40 61 -157 101 -222 77z"/>
<path d="M7673 1948 c-68 -22 -123 -44 -123 -49 0 -5 20 -9 43 -9 29 0 49 -6
60 -17 19 -22 77 -195 68 -205 -7 -7 -333 -110 -336 -106 -2 2 -15 42 -30 89
-34 111 -31 149 13 168 29 13 48 49 20 38 -7 -2 -70 -22 -140 -43 -73 -22
-128 -44 -128 -51 0 -9 13 -11 44 -7 40 6 46 4 61 -20 21 -32 155 -457 155
-491 0 -25 -42 -65 -67 -65 -8 0 -13 -6 -10 -12 5 -16 7 -16 157 31 68 21 126
44 128 51 3 9 -6 10 -37 5 -33 -5 -46 -3 -62 11 -19 17 -96 241 -86 251 6 6
318 103 332 103 5 0 25 -51 44 -114 40 -134 38 -160 -16 -182 -23 -10 -32 -19
-26 -25 13 -13 285 70 280 85 -2 6 -24 9 -50 7 -42 -2 -47 0 -62 28 -25 50
-145 442 -145 477 0 31 19 55 53 67 9 4 17 11 17 17 0 16 -27 11 -157 -32z"/>
<path d="M4345 1930 c-3 -5 8 -16 24 -25 55 -28 56 -44 17 -173 -63 -209 -115
-355 -132 -374 -12 -12 -31 -18 -61 -18 -23 0 -43 -4 -43 -9 0 -11 283 -107
355 -120 72 -14 138 3 180 45 64 64 68 152 11 227 l-32 42 34 20 c62 36 94
105 78 169 -8 34 -61 93 -100 113 -24 12 -311 113 -323 113 -1 0 -4 -4 -8 -10z
m303 -142 c30 -26 43 -75 32 -120 -23 -85 -77 -106 -185 -72 l-53 17 34 101
c19 56 36 106 39 113 5 14 105 -16 133 -39z m-134 -244 c34 -11 74 -32 93 -50
29 -28 33 -37 33 -85 0 -60 -23 -107 -65 -135 -52 -34 -199 2 -211 52 -4 14 5
60 21 110 38 123 44 137 58 131 6 -2 39 -13 71 -23z"/>
<path d="M4922 1728 c3 -7 18 -16 36 -20 17 -5 34 -13 38 -19 12 -19 6 -88
-22 -254 -18 -112 -25 -177 -20 -208 28 -189 306 -277 438 -139 56 58 68 92
99 280 38 221 40 226 102 230 78 5 51 25 -59 44 -116 20 -154 22 -154 8 0 -5
12 -13 28 -16 42 -10 62 -33 62 -72 0 -42 -47 -325 -61 -370 -25 -76 -91 -122
-176 -122 -98 1 -176 62 -189 147 -7 50 45 394 66 433 8 15 21 20 55 20 30 0
45 4 45 13 0 8 -44 20 -132 35 -153 26 -161 26 -156 10z"/>
<path d="M6640 1691 c-90 -29 -174 -104 -213 -189 -18 -38 -22 -66 -22 -142 0
-84 3 -102 28 -151 47 -96 143 -169 247 -189 66 -13 142 2 232 46 40 18 87 37
106 40 28 5 33 10 28 28 -2 11 -8 48 -12 82 -8 76 4 101 51 110 21 4 35 12 35
21 0 10 -8 12 -32 8 -40 -6 -236 -35 -243 -35 -3 0 -5 -6 -5 -13 0 -8 13 -13
36 -13 99 0 96 -139 -5 -198 -46 -27 -150 -33 -204 -12 -104 39 -167 153 -167
302 0 147 68 245 188 267 91 18 196 -44 241 -142 14 -28 28 -51 33 -51 19 0
-8 231 -28 237 -6 2 -17 -10 -24 -27 -7 -16 -14 -30 -15 -30 -1 0 -24 12 -50
26 -50 29 -156 41 -205 25z"/>
<path d="M5750 1616 c0 -11 9 -16 28 -16 16 0 37 -6 48 -14 18 -14 19 -29 19
-280 0 -193 -3 -268 -12 -277 -7 -7 -29 -15 -49 -18 -20 -3 -37 -10 -38 -16
-1 -6 56 -11 147 -13 88 -1 147 1 147 7 0 5 -15 13 -32 16 -62 13 -68 26 -68
147 0 108 0 108 24 108 20 0 44 -26 128 -140 l103 -140 92 0 c51 0 93 3 93 8
0 4 -27 19 -59 34 -57 27 -129 94 -209 195 l-33 42 28 7 c44 10 108 51 128 81
60 91 27 199 -80 256 -36 19 -60 22 -222 25 -162 3 -183 2 -183 -12z m370 -63
c37 -33 53 -91 40 -147 -16 -72 -71 -106 -172 -106 l-48 0 0 140 0 140 75 0
c67 0 78 -3 105 -27z"/>
</g>
</svg>
